<svg width="512" height="512" viewBox="0 0 512 512" fill="none" xmlns="http://www.w3.org/2000/svg">
<path d="M425.178 168.917C430.76 176.833 432.016 185.792 428.946 195.792L371.384 384.542C368.733 393.431 363.395 400.896 355.371 406.937C347.348 412.979 338.8 416 329.73 416H136.531C125.786 416 115.425 412.285 105.448 404.854C95.4705 397.424 88.5282 388.292 84.621 377.458C81.2719 368.153 81.1324 359.333 84.2024 351C84.2024 350.444 84.4117 348.569 84.8303 345.375C85.2489 342.181 85.528 339.611 85.6676 337.667C85.8071 336.556 85.5978 335.062 85.0396 333.187C84.4815 331.312 84.2721 329.958 84.4117 329.125C84.6908 327.597 85.2489 326.139 86.0862 324.75C86.9235 323.361 88.0747 321.729 89.5399 319.854C91.0051 317.979 92.1564 316.347 92.9936 314.958C96.2032 309.681 99.3429 303.326 102.413 295.896C105.483 288.465 107.576 282.111 108.692 276.833C109.111 275.444 109.146 273.361 108.797 270.583C108.448 267.806 108.413 265.861 108.692 264.75C109.111 263.222 110.297 261.278 112.251 258.917C114.204 256.556 115.39 254.958 115.809 254.125C118.74 249.125 121.67 242.736 124.6 234.958C127.531 227.181 129.275 220.931 129.833 216.208C129.973 214.958 129.798 212.736 129.31 209.542C128.822 206.347 128.856 204.403 129.415 203.708C129.973 201.903 131.508 199.785 134.02 197.354C136.531 194.924 138.066 193.361 138.625 192.667C141.276 189.056 144.241 183.187 147.52 175.062C150.8 166.937 152.718 160.236 153.277 154.958C153.416 153.847 153.207 152.076 152.649 149.646C152.091 147.215 151.951 145.375 152.23 144.125C152.509 143.014 153.137 141.764 154.114 140.375C155.091 138.986 156.347 137.389 157.882 135.583C159.417 133.778 160.603 132.319 161.44 131.208C162.556 129.542 163.708 127.424 164.894 124.854C166.08 122.285 167.126 119.854 168.033 117.562C168.94 115.271 170.057 112.771 171.382 110.062C172.708 107.354 174.069 105.132 175.464 103.396C176.86 101.66 178.709 100.028 181.011 98.5C183.314 96.9722 185.825 96.1736 188.546 96.1042C191.268 96.0347 194.582 96.4167 198.489 97.25L198.28 97.875C203.582 96.625 207.141 96 208.955 96H368.244C378.57 96 386.525 99.8889 392.106 107.667C397.688 115.444 398.944 124.472 395.874 134.75L338.521 323.5C333.498 340.028 328.509 350.687 323.555 355.479C318.601 360.271 309.636 362.667 296.658 362.667H114.763C110.995 362.667 108.343 363.708 106.809 365.792C105.274 368.014 105.204 371 106.599 374.75C109.948 384.472 119.995 389.333 136.741 389.333H329.939C333.986 389.333 337.893 388.257 341.661 386.104C345.429 383.951 347.871 381.069 348.987 377.458L411.782 171.833C412.759 168.778 413.108 164.819 412.829 159.958C418.131 162.042 422.248 165.028 425.178 168.917ZM202.466 169.333C201.908 171.139 202.047 172.701 202.885 174.021C203.722 175.34 205.117 176 207.071 176H334.335C336.149 176 337.928 175.34 339.673 174.021C341.417 172.701 342.568 171.139 343.126 169.333L347.522 156C348.08 154.194 347.941 152.632 347.103 151.312C346.266 149.993 344.871 149.333 342.917 149.333H215.653C213.839 149.333 212.06 149.993 210.315 151.312C208.571 152.632 207.42 154.194 206.862 156L202.466 169.333ZM185.093 222.667C184.535 224.472 184.674 226.035 185.511 227.354C186.349 228.674 187.744 229.333 189.698 229.333H316.962C318.776 229.333 320.555 228.674 322.299 227.354C324.044 226.035 325.195 224.472 325.753 222.667L330.149 209.333C330.707 207.528 330.567 205.965 329.73 204.646C328.893 203.326 327.497 202.667 325.544 202.667H198.28C196.466 202.667 194.686 203.326 192.942 204.646C191.198 205.965 190.047 207.528 189.488 209.333L185.093 222.667Z" fill="#FF7017"/>
</svg>
